<?xml version="1.0" encoding="UTF-8" standalone="no"?>
<!-- Created with Inkscape (http://www.inkscape.org/) -->

<svg
   width="0.9919216cm"
   height="0.99937481cm"
   viewBox="0 0 9.9192159 9.993748"
   version="1.1"
   id="svg5"
   xml:space="preserve"
   inkscape:version="1.2.1 (9c6d41e410, 2022-07-14)"
   sodipodi:docname="03WlanOperatedRelaySwitch_icon.svg"
   xmlns:inkscape="http://www.inkscape.org/namespaces/inkscape"
   xmlns:sodipodi="http://sodipodi.sourceforge.net/DTD/sodipodi-0.dtd"
   xmlns="http://www.w3.org/2000/svg"
   xmlns:svg="http://www.w3.org/2000/svg"><sodipodi:namedview
     id="namedview7"
     pagecolor="#ffffff"
     bordercolor="#000000"
     borderopacity="0.25"
     inkscape:showpageshadow="2"
     inkscape:pageopacity="0.0"
     inkscape:pagecheckerboard="0"
     inkscape:deskcolor="#d1d1d1"
     inkscape:document-units="cm"
     showgrid="false"
     inkscape:zoom="5.8012346"
     inkscape:cx="8.0155352"
     inkscape:cy="22.839966"
     inkscape:window-width="1920"
     inkscape:window-height="1001"
     inkscape:window-x="-9"
     inkscape:window-y="-9"
     inkscape:window-maximized="1"
     inkscape:current-layer="layer1" /><defs
     id="defs2"><clipPath
       clipPathUnits="userSpaceOnUse"
       id="clipEmfPath1"><path
         d="M 15.839177,4.4797673 H 293.58475 V 247.98712 H 15.839177 Z"
         id="path132" /></clipPath><pattern
       id="EMFhbasepattern"
       patternUnits="userSpaceOnUse"
       width="6"
       height="6"
       x="0"
       y="0" /><clipPath
       clipPathUnits="userSpaceOnUse"
       id="clipEmfPath1-8"><path
         d="M 4.4797673,4.4797673 H 197.74973 V 96.474989 H 4.4797673 Z"
         id="path6219" /></clipPath><pattern
       id="EMFhbasepattern-9"
       patternUnits="userSpaceOnUse"
       width="6"
       height="6"
       x="0"
       y="0" /><clipPath
       clipPathUnits="userSpaceOnUse"
       id="clipEmfPath1-5"><path
         d="M 28.798504,10.559452 H 204.62937 V 154.39198 H 28.798504 Z"
         id="path639" /></clipPath><clipPath
       clipPathUnits="userSpaceOnUse"
       id="clipEmfPath1-3"><path
         d="M 15.839177,4.4797673 H 293.58475 V 247.98712 H 15.839177 Z"
         id="path132-1" /></clipPath></defs><g
     inkscape:label="Ebene 1"
     inkscape:groupmode="layer"
     id="layer1"
     transform="translate(-164.78848,-118.18272)"><g
       id="g1097"
       transform="matrix(1.5050574,0,0,1.7112546,-85.422402,-83.357713)"><path
         style="fill:#b13035;fill-opacity:1;fill-rule:evenodd;stroke:none;stroke-width:0.0238629"
         d="m 172.82213,117.78693 v 2.90561 c 0,1.6049 -1.46893,2.90562 -3.28105,2.90562 -1.81189,0 -3.28106,-1.30072 -3.28106,-2.90562 v -2.90561 z"
         id="path138" /><path
         style="fill:none;stroke:#006d5e;stroke-width:1.27993px;stroke-linecap:butt;stroke-linejoin:miter;stroke-miterlimit:8;stroke-dasharray:none;stroke-opacity:1"
         clip-path="url(#clipEmfPath1-3)"
         d="M 292.86479,5.0397382 V 126.15345 c 0,66.89652 -61.88679,121.11371 -138.23282,121.11371 -76.336037,0 -138.232822,-54.21719 -138.232822,-121.11371 V 5.0397382 Z"
         id="path140"
         transform="matrix(0.02373571,0,0,0.02399078,165.87078,117.66602)" /><path
         style="fill:none;stroke:#000000;stroke-width:0.190894px;stroke-linecap:butt;stroke-linejoin:miter;stroke-miterlimit:8;stroke-dasharray:none;stroke-opacity:1"
         d="m 166.66576,119.89117 h 5.75917"
         id="path142" /><text
         xml:space="preserve"
         style="font-style:normal;font-variant:normal;font-weight:400;font-size:0.335572px;line-height:125%;font-family:Arial;text-align:start;letter-spacing:0px;word-spacing:0px;text-anchor:start;fill:#000000;fill-opacity:1;stroke:none;stroke-width:0.0238629"
         x="168.62531"
         y="118.97771"
         id="text148"
         transform="scale(0.99466995,1.0053586)"><tspan
           sodipodi:role="line"
           x="168.62531"
           y="118.97771"
           id="tspan146"
           style="stroke-width:0.0238629"><tspan
             dx="0"
             dy="0"
             style="font-style:normal;font-variant:normal;font-weight:400;font-size:0.335572px;font-family:Arial;fill:#000000;stroke-width:0.0238629"
             id="tspan144">L</tspan></tspan></text><text
         xml:space="preserve"
         style="font-style:normal;font-variant:normal;font-weight:400;font-size:0.335572px;line-height:125%;font-family:Arial;text-align:start;letter-spacing:0px;word-spacing:0px;text-anchor:start;fill:#000000;fill-opacity:1;stroke:none;stroke-width:0.0238629"
         x="169.27837"
         y="118.97771"
         id="text154"
         transform="scale(0.99466995,1.0053586)"><tspan
           sodipodi:role="line"
           x="169.27837"
           y="118.97771"
           id="tspan152"
           style="stroke-width:0.0238629"><tspan
             dx="0"
             dy="0"
             style="font-style:normal;font-variant:normal;font-weight:400;font-size:0.335572px;font-family:Arial;fill:#000000;stroke-width:0.0238629"
             id="tspan150">L1</tspan></tspan></text><text
         xml:space="preserve"
         style="font-style:normal;font-variant:normal;font-weight:400;font-size:0.335572px;line-height:125%;font-family:Arial;text-align:start;letter-spacing:0px;word-spacing:0px;text-anchor:start;fill:#000000;fill-opacity:1;stroke:none;stroke-width:0.0238629"
         x="170.07391"
         y="118.97702"
         id="text160"
         transform="scale(0.99466995,1.0053586)"><tspan
           sodipodi:role="line"
           x="170.07391"
           y="118.97702"
           id="tspan158"
           style="stroke-width:0.0238629"><tspan
             dx="0"
             dy="0"
             style="font-style:normal;font-variant:normal;font-weight:400;font-size:0.335572px;font-family:Arial;fill:#000000;stroke-width:0.0238629"
             id="tspan156">S</tspan></tspan></text><text
         xml:space="preserve"
         style="font-style:normal;font-variant:normal;font-weight:400;font-size:0.335572px;line-height:125%;font-family:Arial;text-align:start;letter-spacing:0px;word-spacing:0px;text-anchor:start;fill:#000000;fill-opacity:1;stroke:none;stroke-width:0.0238629"
         x="170.29535"
         y="118.97702"
         id="text166"
         transform="scale(0.99466995,1.0053586)"><tspan
           sodipodi:role="line"
           x="170.29535"
           y="118.97702"
           id="tspan164"
           style="stroke-width:0.0238629"><tspan
             dx="0"
             dy="0"
             style="font-style:normal;font-variant:normal;font-weight:400;font-size:0.335572px;font-family:Arial;fill:#000000;stroke-width:0.0238629"
             id="tspan162">W</tspan></tspan></text><text
         xml:space="preserve"
         style="font-style:normal;font-variant:normal;font-weight:400;font-size:0.335572px;line-height:125%;font-family:Arial;text-align:start;letter-spacing:0px;word-spacing:0px;text-anchor:start;fill:#000000;fill-opacity:1;stroke:none;stroke-width:0.0238629"
         x="171.09619"
         y="118.97702"
         id="text172"
         transform="scale(0.99466995,1.0053586)"><tspan
           sodipodi:role="line"
           x="171.09619"
           y="118.97702"
           id="tspan170"
           style="stroke-width:0.0238629"><tspan
             dx="0"
             dy="0"
             style="font-style:normal;font-variant:normal;font-weight:400;font-size:0.335572px;font-family:Arial;fill:#000000;stroke-width:0.0238629"
             id="tspan168">0</tspan></tspan></text><text
         xml:space="preserve"
         style="font-style:normal;font-variant:normal;font-weight:400;font-size:0.335572px;line-height:125%;font-family:Arial;text-align:start;letter-spacing:0px;word-spacing:0px;text-anchor:start;fill:#000000;fill-opacity:1;stroke:none;stroke-width:0.0238629"
         x="171.90141"
         y="118.97523"
         id="text178"
         transform="scale(0.99466995,1.0053586)"><tspan
           sodipodi:role="line"
           x="171.90141"
           y="118.97523"
           id="tspan176"
           style="stroke-width:0.0238629"><tspan
             dx="0"
             dy="0"
             style="font-style:normal;font-variant:normal;font-weight:400;font-size:0.335572px;font-family:Arial;fill:#000000;stroke-width:0.0238629"
             id="tspan174">N</tspan></tspan></text><g
         id="g476"
         transform="matrix(0.08970978,0,0,0.0906738,156.31832,110.14845)"><path
           style="fill:#016fb9;fill-opacity:1;fill-rule:evenodd;stroke:none;stroke-width:0.264583"
           d="M 124.36669,88.728438 V 99.60754 h 9.05886 V 88.728438 Z"
           id="path180" /><path
           style="fill:none;stroke:#016fb9;stroke-width:0.338649px;stroke-linecap:butt;stroke-linejoin:miter;stroke-miterlimit:8;stroke-dasharray:none;stroke-opacity:1"
           d="m 124.36669,88.728438 h 9.05886 V 99.60754 h -9.05886 z"
           id="path182" /><path
           style="fill:#759ec0;fill-opacity:1;fill-rule:evenodd;stroke:none;stroke-width:0.264583"
           d="m 125.08632,94.167989 c 0,-1.997501 1.35724,-3.619312 3.02667,-3.619312 1.67208,0 3.02668,1.621811 3.02668,3.619312 0,2.000146 -1.3546,3.619312 -3.02668,3.619312 -1.66943,0 -3.02667,-1.619166 -3.02667,-3.619312 z"
           id="path184" /><path
           style="fill:none;stroke:#006d5e;stroke-width:0.338649px;stroke-linecap:butt;stroke-linejoin:miter;stroke-miterlimit:8;stroke-dasharray:none;stroke-opacity:1"
           d="m 125.08632,94.167989 c 0,-1.997501 1.35724,-3.619312 3.02667,-3.619312 1.67208,0 3.02668,1.621811 3.02668,3.619312 0,2.000146 -1.3546,3.619312 -3.02668,3.619312 -1.66943,0 -3.02667,-1.619166 -3.02667,-3.619312"
           id="path186" /><path
           style="fill:#016fb9;fill-opacity:1;fill-rule:evenodd;stroke:none;stroke-width:0.264583"
           d="M 133.59488,88.728438 V 99.60754 h 9.05886 V 88.728438 Z"
           id="path188" /><path
           style="fill:none;stroke:#016fb9;stroke-width:0.338649px;stroke-linecap:butt;stroke-linejoin:miter;stroke-miterlimit:8;stroke-dasharray:none;stroke-opacity:1"
           d="m 133.59488,88.728438 h 9.05886 V 99.60754 h -9.05886 z"
           id="path190" /><path
           style="fill:#759ec0;fill-opacity:1;fill-rule:evenodd;stroke:none;stroke-width:0.264583"
           d="m 133.97586,94.167989 c 0,-1.997501 1.36517,-3.619312 3.04784,-3.619312 1.68531,0 3.04784,1.621811 3.04784,3.619312 0,2.000146 -1.36253,3.619312 -3.04784,3.619312 -1.68267,0 -3.04784,-1.619166 -3.04784,-3.619312 z"
           id="path192" /><path
           style="fill:none;stroke:#006d5e;stroke-width:0.338649px;stroke-linecap:butt;stroke-linejoin:miter;stroke-miterlimit:8;stroke-dasharray:none;stroke-opacity:1"
           d="m 133.97586,94.167989 c 0,-1.997501 1.36517,-3.619312 3.04784,-3.619312 1.68531,0 3.04784,1.621811 3.04784,3.619312 0,2.000146 -1.36253,3.619312 -3.04784,3.619312 -1.68267,0 -3.04784,-1.619166 -3.04784,-3.619312"
           id="path194" /><path
           style="fill:#016fb9;fill-opacity:1;fill-rule:evenodd;stroke:none;stroke-width:0.264583"
           d="M 142.82306,88.728438 V 99.60754 h 9.1012 V 88.728438 Z"
           id="path196" /><path
           style="fill:none;stroke:#016fb9;stroke-width:0.338649px;stroke-linecap:butt;stroke-linejoin:miter;stroke-miterlimit:8;stroke-dasharray:none;stroke-opacity:1"
           d="m 142.82306,88.728438 h 9.1012 V 99.60754 h -9.1012 z"
           id="path198" /><path
           style="fill:#759ec0;fill-opacity:1;fill-rule:evenodd;stroke:none;stroke-width:0.264583"
           d="m 143.2887,94.167989 c 0,-1.997501 1.35725,-3.619312 3.02668,-3.619312 1.67208,0 3.02668,1.621811 3.02668,3.619312 0,2.000146 -1.3546,3.619312 -3.02668,3.619312 -1.66943,0 -3.02668,-1.619166 -3.02668,-3.619312 z"
           id="path200" /><path
           style="fill:none;stroke:#006d5e;stroke-width:0.338649px;stroke-linecap:butt;stroke-linejoin:miter;stroke-miterlimit:8;stroke-dasharray:none;stroke-opacity:1"
           d="m 143.2887,94.167989 c 0,-1.997501 1.35725,-3.619312 3.02668,-3.619312 1.67208,0 3.02668,1.621811 3.02668,3.619312 0,2.000146 -1.3546,3.619312 -3.02668,3.619312 -1.66943,0 -3.02668,-1.619166 -3.02668,-3.619312"
           id="path202" /><path
           style="fill:#016fb9;fill-opacity:1;fill-rule:evenodd;stroke:none;stroke-width:0.264583"
           d="M 152.09358,88.728438 V 99.60754 h 9.05887 V 88.728438 Z"
           id="path204" /><path
           style="fill:none;stroke:#016fb9;stroke-width:0.338649px;stroke-linecap:butt;stroke-linejoin:miter;stroke-miterlimit:8;stroke-dasharray:none;stroke-opacity:1"
           d="m 152.09358,88.728438 h 9.05887 V 99.60754 h -9.05887 z"
           id="path206" /><path
           style="fill:#759ec0;fill-opacity:1;fill-rule:evenodd;stroke:none;stroke-width:0.264583"
           d="m 152.55922,94.167989 c 0,-1.997501 1.35725,-3.619312 3.02668,-3.619312 1.67208,0 3.02668,1.621811 3.02668,3.619312 0,2.000146 -1.3546,3.619312 -3.02668,3.619312 -1.66943,0 -3.02668,-1.619166 -3.02668,-3.619312 z"
           id="path208" /><path
           style="fill:none;stroke:#006d5e;stroke-width:0.338649px;stroke-linecap:butt;stroke-linejoin:miter;stroke-miterlimit:8;stroke-dasharray:none;stroke-opacity:1"
           d="m 152.55922,94.167989 c 0,-1.997501 1.35725,-3.619312 3.02668,-3.619312 1.67208,0 3.02668,1.621811 3.02668,3.619312 0,2.000146 -1.3546,3.619312 -3.02668,3.619312 -1.66943,0 -3.02668,-1.619166 -3.02668,-3.619312"
           id="path210" /><path
           style="fill:#016fb9;fill-opacity:1;fill-rule:evenodd;stroke:none;stroke-width:0.264583"
           d="M 161.3641,88.728438 V 99.60754 h 9.05886 V 88.728438 Z"
           id="path212" /><path
           style="fill:none;stroke:#016fb9;stroke-width:0.338649px;stroke-linecap:butt;stroke-linejoin:miter;stroke-miterlimit:8;stroke-dasharray:none;stroke-opacity:1"
           d="m 161.3641,88.728438 h 9.05886 V 99.60754 h -9.05886 z"
           id="path214" /><path
           style="fill:#759ec0;fill-opacity:1;fill-rule:evenodd;stroke:none;stroke-width:0.264583"
           d="m 161.82974,94.167989 c 0,-1.997501 1.35725,-3.619312 3.02668,-3.619312 1.67208,0 3.02668,1.621811 3.02668,3.619312 0,2.000146 -1.3546,3.619312 -3.02668,3.619312 -1.66943,0 -3.02668,-1.619166 -3.02668,-3.619312 z"
           id="path216" /><path
           style="fill:none;stroke:#006d5e;stroke-width:0.338649px;stroke-linecap:butt;stroke-linejoin:miter;stroke-miterlimit:8;stroke-dasharray:none;stroke-opacity:1"
           d="m 161.82974,94.167989 c 0,-1.997501 1.35725,-3.619312 3.02668,-3.619312 1.67208,0 3.02668,1.621811 3.02668,3.619312 0,2.000146 -1.3546,3.619312 -3.02668,3.619312 -1.66943,0 -3.02668,-1.619166 -3.02668,-3.619312"
           id="path218" /></g><path
         style="fill:#759ec0;fill-opacity:1;fill-rule:evenodd;stroke:none;stroke-width:0.0238629"
         d="m 168.92398,122.83625 v 0.26484 h 0.25064 v -0.26484 z"
         id="path220" /><path
         style="fill:none;stroke:#016fb9;stroke-width:0.0954468px;stroke-linecap:butt;stroke-linejoin:miter;stroke-miterlimit:8;stroke-dasharray:none;stroke-opacity:1"
         d="m 168.92398,122.83625 h 0.25064 v 0.26484 h -0.25064 z"
         id="path222" /><path
         style="fill:#759ec0;fill-opacity:1;fill-rule:evenodd;stroke:none;stroke-width:0.0238629"
         d="m 169.17462,122.83625 v 0.26484 h 0.25063 v -0.26484 z"
         id="path224" /><path
         style="fill:none;stroke:#016fb9;stroke-width:0.0954468px;stroke-linecap:butt;stroke-linejoin:miter;stroke-miterlimit:8;stroke-dasharray:none;stroke-opacity:1"
         d="m 169.17462,122.83625 h 0.25063 v 0.26484 h -0.25063 z"
         id="path226" /><path
         style="fill:#759ec0;fill-opacity:1;fill-rule:evenodd;stroke:none;stroke-width:0.0238629"
         d="m 169.41766,122.83625 v 0.26484 h 0.25063 v -0.26484 z"
         id="path228" /><path
         style="fill:none;stroke:#016fb9;stroke-width:0.0954468px;stroke-linecap:butt;stroke-linejoin:miter;stroke-miterlimit:8;stroke-dasharray:none;stroke-opacity:1"
         d="m 169.41766,122.83625 h 0.25063 v 0.26484 h -0.25063 z"
         id="path230" /><path
         style="fill:#759ec0;fill-opacity:1;fill-rule:evenodd;stroke:none;stroke-width:0.0238629"
         d="m 169.66829,122.83625 v 0.26484 h 0.24684 v -0.26484 z"
         id="path232" /><path
         style="fill:none;stroke:#016fb9;stroke-width:0.0954468px;stroke-linecap:butt;stroke-linejoin:miter;stroke-miterlimit:8;stroke-dasharray:none;stroke-opacity:1"
         d="m 169.66829,122.83625 h 0.24684 v 0.26484 h -0.24684 z"
         id="path234" /><path
         style="fill:#759ec0;fill-opacity:1;fill-rule:evenodd;stroke:none;stroke-width:0.0238629"
         d="m 169.91134,122.83625 v 0.26484 h 0.24683 v -0.26484 z"
         id="path236" /><path
         style="fill:none;stroke:#016fb9;stroke-width:0.0954468px;stroke-linecap:butt;stroke-linejoin:miter;stroke-miterlimit:8;stroke-dasharray:none;stroke-opacity:1"
         d="m 169.91134,122.83625 h 0.24683 v 0.26484 h -0.24683 z"
         id="path238" /></g></g></svg>
